<?xml version="1.0" encoding="UTF-8"?>
<svg width="711px" height="168px" viewBox="0 0 711 168" version="1.1" xmlns="http://www.w3.org/2000/svg" xmlns:xlink="http://www.w3.org/1999/xlink">
    <title>Slice</title>
    <g id="Page-1" stroke="none" stroke-width="1" fill="none" fill-rule="evenodd">
        <path d="M193.4,115.6 C196.933333,115.6 200.216667,114.883333 203.25,113.45 C206.283333,112.016667 208.966667,109.95 211.3,107.25 L211.3,107.25 L211.3,114 L226.65,114 L226.65,62.8 L211.3,62.8 L211.3,69.05 C209.3,66.5833333 206.725,64.6583333 203.575,63.275 C200.425,61.8916667 197.033333,61.2 193.4,61.2 C188.466667,61.2 184.091667,62.3916667 180.275,64.775 C176.458333,67.1583333 173.466667,70.3916667 171.3,74.475 C169.133333,78.5583333 168.05,83.1666667 168.05,88.3 C168.05,93.5666667 169.175,98.2583333 171.425,102.375 C173.675,106.491667 176.725,109.725 180.575,112.075 C184.425,114.425 188.7,115.6 193.4,115.6 Z M197.95,102.55 C195.283333,102.55 192.916667,101.941667 190.85,100.725 C188.783333,99.5083333 187.158333,97.8333333 185.975,95.7 C184.791667,93.5666667 184.2,91.1333333 184.2,88.4 C184.2,85.6666667 184.8,83.2333333 186,81.1 C187.2,78.9666667 188.833333,77.2916667 190.9,76.075 C192.966667,74.8583333 195.316667,74.25 197.95,74.25 C200.616667,74.25 202.975,74.8583333 205.025,76.075 C207.075,77.2916667 208.691667,78.9583333 209.875,81.075 C211.058333,83.1916667 211.65,85.6333333 211.65,88.4 C211.65,91.1333333 211.066667,93.5666667 209.9,95.7 C208.733333,97.8333333 207.116667,99.5083333 205.05,100.725 C202.983333,101.941667 200.616667,102.55 197.95,102.55 Z M255.757561,115.6 C260.457561,115.6 264.482561,114.916667 267.832561,113.55 C271.182561,112.183333 273.749227,110.208333 275.532561,107.625 C277.315894,105.041667 278.207561,101.9 278.207561,98.2 C278.207561,95.1666667 277.640894,92.7416667 276.507561,90.925 C275.374227,89.1083333 273.815894,87.6333333 271.832561,86.5 C269.849227,85.3666667 267.574227,84.3333333 265.007561,83.4 C263.440894,82.8333333 261.799227,82.2083333 260.082561,81.525 C258.365894,80.8416667 256.915894,80.0583333 255.732561,79.175 C254.549227,78.2916667 253.957561,77.25 253.957561,76.05 C253.957561,74.7833333 254.524227,73.7333333 255.657561,72.9 C256.790894,72.0666667 258.307561,71.65 260.207561,71.65 C263.607561,71.65 267.457561,73.0333333 271.757561,75.8 L271.757561,75.8 L277.007561,65.95 C273.840894,64.3833333 270.865894,63.2166667 268.082561,62.45 C265.299227,61.6833333 262.640894,61.3 260.107561,61.3 C256.040894,61.3 252.449227,61.9833333 249.332561,63.35 C246.215894,64.7166667 243.774227,66.6083333 242.007561,69.025 C240.240894,71.4416667 239.357561,74.2333333 239.357561,77.4 C239.357561,80 239.949227,82.15 241.132561,83.85 C242.315894,85.55 243.857561,86.95 245.757561,88.05 C247.657561,89.15 249.640894,90.1333333 251.707561,91 C254.140894,92 256.124227,92.825 257.657561,93.475 C259.190894,94.125 260.332561,94.8333333 261.082561,95.6 C261.832561,96.3666667 262.207561,97.4166667 262.207561,98.75 C262.207561,99.9166667 261.932561,100.908333 261.382561,101.725 C260.832561,102.541667 260.082561,103.166667 259.132561,103.6 C258.182561,104.033333 257.057561,104.25 255.757561,104.25 C253.424227,104.25 251.090894,103.65 248.757561,102.45 C246.424227,101.25 244.190894,99.5166667 242.057561,97.25 L242.057561,97.25 L235.607561,107.55 C237.874227,110.183333 240.715894,112.183333 244.132561,113.55 C247.549227,114.916667 251.424227,115.6 255.757561,115.6 Z M303.900422,115.6 C308.600422,115.6 312.625422,114.916667 315.975422,113.55 C319.325422,112.183333 321.892089,110.208333 323.675422,107.625 C325.458756,105.041667 326.350422,101.9 326.350422,98.2 C326.350422,95.1666667 325.783756,92.7416667 324.650422,90.925 C323.517089,89.1083333 321.958756,87.6333333 319.975422,86.5 C317.992089,85.3666667 315.717089,84.3333333 313.150422,83.4 C311.583756,82.8333333 309.942089,82.2083333 308.225422,81.525 C306.508756,80.8416667 305.058756,80.0583333 303.875422,79.175 C302.692089,78.2916667 302.100422,77.25 302.100422,76.05 C302.100422,74.7833333 302.667089,73.7333333 303.800422,72.9 C304.933756,72.0666667 306.450422,71.65 308.350422,71.65 C311.750422,71.65 315.600422,73.0333333 319.900422,75.8 L319.900422,75.8 L325.150422,65.95 C321.983756,64.3833333 319.008756,63.2166667 316.225422,62.45 C313.442089,61.6833333 310.783756,61.3 308.250422,61.3 C304.183756,61.3 300.592089,61.9833333 297.475422,63.35 C294.358756,64.7166667 291.917089,66.6083333 290.150422,69.025 C288.383756,71.4416667 287.500422,74.2333333 287.500422,77.4 C287.500422,80 288.092089,82.15 289.275422,83.85 C290.458756,85.55 292.000422,86.95 293.900422,88.05 C295.800422,89.15 297.783756,90.1333333 299.850422,91 C302.283756,92 304.267089,92.825 305.800422,93.475 C307.333756,94.125 308.475422,94.8333333 309.225422,95.6 C309.975422,96.3666667 310.350422,97.4166667 310.350422,98.75 C310.350422,99.9166667 310.075422,100.908333 309.525422,101.725 C308.975422,102.541667 308.225422,103.166667 307.275422,103.6 C306.325422,104.033333 305.200422,104.25 303.900422,104.25 C301.567089,104.25 299.233756,103.65 296.900422,102.45 C294.567089,101.25 292.333756,99.5166667 290.200422,97.25 L290.200422,97.25 L283.750422,107.55 C286.017089,110.183333 288.858756,112.183333 292.275422,113.55 C295.692089,114.916667 299.567089,115.6 303.900422,115.6 Z M362.143284,115.6 C367.543284,115.6 372.443284,114.433333 376.843284,112.1 C381.243284,109.766667 384.643284,106.533333 387.043284,102.4 L387.043284,102.4 L375.993284,96.85 C374.093284,99.1166667 372.118284,100.766667 370.068284,101.8 C368.018284,102.833333 365.659951,103.35 362.993284,103.35 C360.159951,103.35 357.676618,102.808333 355.543284,101.725 C353.409951,100.641667 351.751618,99.1333333 350.568284,97.2 C349.384951,95.2666667 348.793284,93 348.793284,90.4 L348.793284,90.4 L388.043284,90.4 C388.143284,89.5333333 388.201618,88.9416667 388.218284,88.625 C388.234951,88.3083333 388.243284,87.9333333 388.243284,87.5 C388.243284,82.2666667 387.118284,77.6833333 384.868284,73.75 C382.618284,69.8166667 379.484951,66.7416667 375.468284,64.525 C371.451618,62.3083333 366.776618,61.2 361.443284,61.2 C357.443284,61.2 353.726618,61.8916667 350.293284,63.275 C346.859951,64.6583333 343.843284,66.5916667 341.243284,69.075 C338.643284,71.5583333 336.618284,74.45 335.168284,77.75 C333.718284,81.05 332.993284,84.6 332.993284,88.4 C332.993284,93.5666667 334.276618,98.2 336.843284,102.3 C339.409951,106.4 342.884951,109.641667 347.268284,112.025 C351.651618,114.408333 356.609951,115.6 362.143284,115.6 Z M373.143284,81.9 L349.343284,81.9 C349.576618,79.9333333 350.209951,78.2333333 351.243284,76.8 C352.276618,75.3666667 353.643284,74.2666667 355.343284,73.5 C357.043284,72.7333333 359.009951,72.35 361.243284,72.35 C363.343284,72.35 365.226618,72.7333333 366.893284,73.5 C368.559951,74.2666667 369.934951,75.3666667 371.018284,76.8 C372.101618,78.2333333 372.809951,79.9333333 373.143284,81.9 L373.143284,81.9 Z M414.265014,114 L414.265014,82.85 C414.265014,81.1166667 414.698347,79.5333333 415.565014,78.1 C416.431681,76.6666667 417.640014,75.5333333 419.190014,74.7 C420.740014,73.8666667 422.498347,73.45 424.465014,73.45 C427.431681,73.45 429.756681,74.4 431.440014,76.3 C433.123347,78.2 433.965014,80.7333333 433.965014,83.9 L433.965014,83.9 L433.965014,114 L449.315014,114 L449.315014,82.7 C449.315014,81 449.748347,79.45 450.615014,78.05 C451.481681,76.65 452.673347,75.5333333 454.190014,74.7 C455.706681,73.8666667 457.465014,73.45 459.465014,73.45 C462.365014,73.45 464.681681,74.4083333 466.415014,76.325 C468.148347,78.2416667 469.015014,80.8666667 469.015014,84.2 L469.015014,84.2 L469.015014,114 L484.365014,114 L484.365014,80 C484.365014,76.1666667 483.540014,72.8416667 481.890014,70.025 C480.240014,67.2083333 477.981681,65.0333333 475.115014,63.5 C472.248347,61.9666667 468.965014,61.2 465.265014,61.2 C461.565014,61.2 458.281681,62.0166667 455.415014,63.65 C452.548347,65.2833333 449.865014,67.7166667 447.365014,70.95 C445.998347,67.9833333 443.731681,65.6166667 440.565014,63.85 C437.398347,62.0833333 433.848347,61.2 429.915014,61.2 C427.015014,61.2 424.315014,61.7833333 421.815014,62.95 C419.315014,64.1166667 416.798347,65.9666667 414.265014,68.5 L414.265014,68.5 L414.265014,62.8 L398.915014,62.8 L398.915014,114 L414.265014,114 Z M531.903031,115.6 C536.536364,115.6 540.761364,114.441667 544.578031,112.125 C548.394697,109.808333 551.436364,106.6 553.703031,102.5 C555.969697,98.4 557.103031,93.7 557.103031,88.4 C557.103031,83.2 556.003031,78.5583333 553.803031,74.475 C551.603031,70.3916667 548.569697,67.1583333 544.703031,64.775 C540.836364,62.3916667 536.436364,61.2 531.503031,61.2 C527.936364,61.2 524.619697,61.8916667 521.553031,63.275 C518.486364,64.6583333 515.936364,66.5833333 513.903031,69.05 L513.903031,69.05 L513.903031,28 L498.553031,28 L498.553031,114 L513.903031,114 L513.903031,107.25 C516.169697,109.883333 518.853031,111.933333 521.953031,113.4 C525.053031,114.866667 528.369697,115.6 531.903031,115.6 Z M527.303031,102.55 C524.636364,102.55 522.261364,101.941667 520.178031,100.725 C518.094697,99.5083333 516.461364,97.8416667 515.278031,95.725 C514.094697,93.6083333 513.503031,91.2 513.503031,88.5 C513.503031,85.7333333 514.103031,83.2833333 515.303031,81.15 C516.503031,79.0166667 518.144697,77.3333333 520.228031,76.1 C522.311364,74.8666667 524.669697,74.25 527.303031,74.25 C529.936364,74.25 532.269697,74.8666667 534.303031,76.1 C536.336364,77.3333333 537.953031,79.025 539.153031,81.175 C540.353031,83.325 540.953031,85.7666667 540.953031,88.5 C540.953031,91.2 540.369697,93.6083333 539.203031,95.725 C538.036364,97.8416667 536.436364,99.5083333 534.403031,100.725 C532.369697,101.941667 530.003031,102.55 527.303031,102.55 Z M582.120362,97.6613071 C583.594749,84.1374259 584.066642,60.9169902 583.536039,28 L568.186039,28 L568.186039,114 C575.289727,115.354054 579.934501,109.907823 582.120362,97.6613071 Z M623.14018,115.6 C628.54018,115.6 633.44018,114.433333 637.84018,112.1 C642.24018,109.766667 645.64018,106.533333 648.04018,102.4 L648.04018,102.4 L636.99018,96.85 C635.09018,99.1166667 633.11518,100.766667 631.06518,101.8 C629.01518,102.833333 626.656847,103.35 623.99018,103.35 C621.156847,103.35 618.673513,102.808333 616.54018,101.725 C614.406847,100.641667 612.748513,99.1333333 611.56518,97.2 C610.381847,95.2666667 609.79018,93 609.79018,90.4 L609.79018,90.4 L649.04018,90.4 C649.14018,89.5333333 649.198513,88.9416667 649.21518,88.625 C649.231847,88.3083333 649.24018,87.9333333 649.24018,87.5 C649.24018,82.2666667 648.11518,77.6833333 645.86518,73.75 C643.61518,69.8166667 640.481847,66.7416667 636.46518,64.525 C632.448513,62.3083333 627.773513,61.2 622.44018,61.2 C618.44018,61.2 614.723513,61.8916667 611.29018,63.275 C607.856847,64.6583333 604.84018,66.5916667 602.24018,69.075 C599.64018,71.5583333 597.61518,74.45 596.16518,77.75 C594.71518,81.05 593.99018,84.6 593.99018,88.4 C593.99018,93.5666667 595.273513,98.2 597.84018,102.3 C600.406847,106.4 603.881847,109.641667 608.26518,112.025 C612.648513,114.408333 617.606847,115.6 623.14018,115.6 Z M634.14018,81.9 L610.34018,81.9 C610.573513,79.9333333 611.206847,78.2333333 612.24018,76.8 C613.273513,75.3666667 614.64018,74.2666667 616.34018,73.5 C618.04018,72.7333333 620.006847,72.35 622.24018,72.35 C624.34018,72.35 626.223513,72.7333333 627.89018,73.5 C629.556847,74.2666667 630.931847,75.3666667 632.01518,76.8 C633.098513,78.2333333 633.806847,79.9333333 634.14018,81.9 L634.14018,81.9 Z M684.711909,115.6 C690.111909,115.6 695.011909,114.433333 699.411909,112.1 C703.811909,109.766667 707.211909,106.533333 709.611909,102.4 L709.611909,102.4 L698.561909,96.85 C696.661909,99.1166667 694.686909,100.766667 692.636909,101.8 C690.586909,102.833333 688.228576,103.35 685.561909,103.35 C682.728576,103.35 680.245243,102.808333 678.111909,101.725 C675.978576,100.641667 674.320243,99.1333333 673.136909,97.2 C671.953576,95.2666667 671.361909,93 671.361909,90.4 L671.361909,90.4 L710.611909,90.4 C710.711909,89.5333333 710.770243,88.9416667 710.786909,88.625 C710.803576,88.3083333 710.811909,87.9333333 710.811909,87.5 C710.811909,82.2666667 709.686909,77.6833333 707.436909,73.75 C705.186909,69.8166667 702.053576,66.7416667 698.036909,64.525 C694.020243,62.3083333 689.345243,61.2 684.011909,61.2 C680.011909,61.2 676.295243,61.8916667 672.861909,63.275 C669.428576,64.6583333 666.411909,66.5916667 663.811909,69.075 C661.211909,71.5583333 659.186909,74.45 657.736909,77.75 C656.286909,81.05 655.561909,84.6 655.561909,88.4 C655.561909,93.5666667 656.845243,98.2 659.411909,102.3 C661.978576,106.4 665.453576,109.641667 669.836909,112.025 C674.220243,114.408333 679.178576,115.6 684.711909,115.6 Z M695.711909,81.9 L671.911909,81.9 C672.145243,79.9333333 672.778576,78.2333333 673.811909,76.8 C674.845243,75.3666667 676.211909,74.2666667 677.911909,73.5 C679.611909,72.7333333 681.578576,72.35 683.811909,72.35 C685.911909,72.35 687.795243,72.7333333 689.461909,73.5 C691.128576,74.2666667 692.503576,75.3666667 693.586909,76.8 C694.670243,78.2333333 695.378576,79.9333333 695.711909,81.9 L695.711909,81.9 Z" id="assemblée" fill="#1E1E1E" fill-rule="nonzero"></path>
        <g id="Group-9" transform="translate(0.000000, 22.000000)">
            <g id="Group-7">
                <rect id="Rectangle" stroke="#0035D4" stroke-width="8" x="4" y="4" width="116" height="115" rx="19"></rect>
                <ellipse id="Oval" fill-opacity="0.683102054" fill="#DC0303" cx="22.6277372" cy="22.7777778" rx="7.24087591" ry="7.28888889"></ellipse>
            </g>
            <g id="Group-8" transform="translate(36.000000, 45.000000)" fill="#0035D4" stroke="#0035D4" stroke-width="6">
                <path d="M47.578125,13.8623281 L37.0652831,26.921875 L58.0909669,26.921875 L47.578125,13.8623281 Z" id="Triangle" transform="translate(47.578125, 19.500000) scale(-1, 1) rotate(90.000000) translate(-47.578125, -19.500000) "></path>
                <rect id="Rectangle" x="3" y="3" width="37.5" height="33" rx="8"></rect>
            </g>
        </g>
    </g>
</svg>